<?xml version="1.0" encoding="utf-8"?>
<!-- Generator: Adobe Illustrator 15.0.0, SVG Export Plug-In  -->
<!DOCTYPE svg PUBLIC "-//W3C//DTD SVG 1.1//EN" "http://www.w3.org/Graphics/SVG/1.1/DTD/svg11.dtd" [
	<!ENTITY ns_flows "http://ns.adobe.com/Flows/1.0/">
]>
<svg version="1.1"
	 xmlns="http://www.w3.org/2000/svg" xmlns:xlink="http://www.w3.org/1999/xlink" xmlns:a="http://ns.adobe.com/AdobeSVGViewerExtensions/3.0/"
	 x="0px" y="0px" width="250px" height="100px" viewBox="-21.368 -11.467 250 100"
	 overflow="visible" enable-background="new -21.368 -11.467 250 100" xml:space="preserve">
<defs>
</defs>
<g>
	<path d="M6.046,14.24c0.583-0.503,1.246-0.756,1.989-0.756c0.424,0,0.742,0.053,0.955,0.159c2.015-0.901,4.137-1.644,6.364-2.228
		c2.228-0.583,4.456-0.875,6.683-0.875c1.484,0,2.93,0.147,4.336,0.438c1.405,0.292,2.771,0.81,4.097,1.552
		c1.432,0.743,2.731,1.698,3.898,2.864c1.166,1.167,2.148,2.454,2.943,3.859c0.796,1.406,1.418,2.904,1.87,4.495
		c0.45,1.591,0.676,3.183,0.676,4.773c0,3.077-0.823,5.915-2.466,8.513c-1.75,2.705-3.898,4.867-6.444,6.484
		c-2.546,1.618-5.463,2.56-8.751,2.824c-0.637,0.053-1.287,0.094-1.949,0.119c-0.664,0.027-1.287,0.04-1.87,0.04
		c-1.221,0-2.414-0.052-3.58-0.159c-1.167-0.105-2.334-0.238-3.5-0.398c0,2.018,0,4.297,0,6.843s0.026,4.827,0.08,6.842
		c-0.054,1.22-0.412,2.134-1.074,2.745c-0.664,0.609-1.392,0.914-2.188,0.914c-0.743,0-1.432-0.277-2.068-0.835
		c-0.636-0.557-1.034-1.419-1.193-2.585V44.353c-0.159,0-0.346-0.052-0.557-0.159c-0.795-0.424-1.379-0.928-1.75-1.512
		c-0.372-0.582-0.557-1.166-0.557-1.75c0-0.688,0.239-1.312,0.716-1.87c0.477-0.557,1.166-0.941,2.068-1.153V16.587
		C5.038,15.527,5.462,14.745,6.046,14.24z M27.368,18.258c-1.645-0.848-3.449-1.273-5.41-1.273c-1.857,0-3.713,0.278-5.569,0.835
		c-1.857,0.557-3.554,1.207-5.092,1.949v19.571c1.114,0.266,2.228,0.465,3.341,0.597c1.114,0.133,2.254,0.199,3.421,0.199
		c1.114,0,2.228-0.08,3.341-0.239c1.538-0.265,3.063-0.649,4.575-1.153c1.512-0.503,2.851-1.365,4.018-2.586
		c1.061-1.166,1.856-2.439,2.387-3.819c0.53-1.378,0.796-2.757,0.796-4.137c0-2.015-0.491-3.911-1.472-5.688
		C30.722,20.738,29.277,19.319,27.368,18.258z"/>
	<path d="M71.125,51.514c1.114-0.425,2.069-0.479,2.864-0.16s1.365,0.823,1.71,1.512c0.344,0.689,0.398,1.459,0.159,2.308
		s-0.863,1.565-1.87,2.147c-1.75,1.009-3.634,1.938-5.648,2.785c-2.017,0.848-4.058,1.432-6.126,1.75
		c-2.069,0.318-4.111,0.305-6.126-0.039c-2.017-0.346-3.952-1.154-5.808-2.428c-2.228-1.537-3.925-3.619-5.091-6.244
		c-1.167-2.626-1.778-5.357-1.83-8.195c-0.053-2.836,0.464-5.569,1.551-8.194c1.086-2.625,2.797-4.733,5.132-6.325
		c2.439-1.644,5.091-2.876,7.956-3.7c2.864-0.821,5.754-0.915,8.672-0.278c1.432,0.318,2.731,0.995,3.898,2.029
		c1.166,1.034,2.108,2.228,2.824,3.58s1.1,2.785,1.154,4.296c0.052,1.511-0.318,2.931-1.114,4.256
		c-0.902,1.486-2.201,2.745-3.898,3.779c-1.698,1.034-3.541,1.909-5.529,2.625c-1.989,0.717-3.978,1.312-5.967,1.791
		c-1.989,0.477-3.727,0.928-5.211,1.352c-0.636,0.16-1.247,0.188-1.83,0.08c0.795,1.697,1.975,3.09,3.54,4.177
		c1.564,1.087,3.513,1.552,5.848,1.392c1.856-0.105,3.726-0.622,5.609-1.551C67.875,53.33,69.586,52.416,71.125,51.514z
		 M55.611,34.567c-1.963,1.008-3.421,2.426-4.375,4.256c-0.955,1.83-1.432,3.752-1.432,5.768c0.371-0.266,0.768-0.478,1.193-0.637
		c0.955-0.265,1.922-0.543,2.904-0.836c0.981-0.291,1.975-0.568,2.983-0.835c0.637-0.159,1.498-0.397,2.585-0.716
		c1.087-0.318,2.214-0.689,3.381-1.113c1.166-0.424,2.228-0.916,3.183-1.473c0.955-0.557,1.591-1.18,1.909-1.87
		c0.105-1.75-0.318-2.943-1.273-3.58c-0.955-0.636-2.096-0.955-3.421-0.955c-1.327,0-2.705,0.226-4.137,0.676
		C57.679,33.706,56.512,34.143,55.611,34.567z"/>
	<path d="M80.909,41.33c0.583-1.697,1.299-3.354,2.148-4.973c0.848-1.618,1.856-3.089,3.023-4.416
		c1.166-1.325,2.506-2.466,4.018-3.421c1.512-0.955,3.195-1.643,5.052-2.068c3.075-0.688,5.768-0.45,8.075,0.716
		c2.307,1.167,4.149,2.838,5.53,5.012c1.378,2.176,2.293,4.654,2.744,7.439c0.449,2.785,0.33,5.449-0.357,7.996
		c-0.797,3.129-2.202,6.046-4.217,8.751c-2.017,2.704-4.562,4.667-7.638,5.888c-2.281,0.9-4.469,1.232-6.563,0.994
		c-2.096-0.238-3.978-0.915-5.648-2.029c-1.671-1.113-3.09-2.572-4.256-4.375c-1.167-1.803-1.963-3.846-2.387-6.127
		c-0.266-1.432-0.358-2.836-0.278-4.216c0.079-1.379,0.251-2.757,0.517-4.138L80.909,41.33z M87.115,43.159
		c-0.212,1.114-0.358,2.136-0.438,3.063s-0.04,1.977,0.12,3.143c0.159,1.432,0.609,2.719,1.352,3.858
		c0.742,1.142,1.644,2.017,2.705,2.626c1.061,0.609,2.24,0.902,3.541,0.875c1.299-0.027,2.612-0.438,3.938-1.234
		c1.75-1.06,3.143-2.438,4.177-4.137c1.034-1.696,1.816-3.526,2.348-5.489c0.424-1.591,0.517-3.288,0.277-5.092
		c-0.238-1.802-0.783-3.394-1.63-4.773c-0.849-1.378-1.989-2.373-3.421-2.983c-1.432-0.609-3.13-0.517-5.092,0.279
		c-2.122,0.902-3.793,2.255-5.012,4.057C88.758,39.155,87.804,41.091,87.115,43.159z"/>
	<path d="M121.245,26.293c0.583-0.529,1.245-0.795,1.989-0.795c0.688,0,1.338,0.239,1.949,0.716
		c0.609,0.478,1.047,1.221,1.312,2.228v0.716c1.219-1.061,2.611-1.842,4.177-2.347c1.563-0.503,3.089-0.756,4.574-0.756
		c2.069,0,3.991,0.452,5.769,1.353c1.775,0.903,3.327,2.122,4.654,3.66c1.324,1.539,2.359,3.329,3.102,5.37
		c0.742,2.042,1.114,4.23,1.114,6.563c0,2.547-0.411,4.881-1.233,7.002s-2.028,3.951-3.619,5.488
		c-1.592,1.539-3.568,2.746-5.928,3.621c-2.36,0.875-5.105,1.312-8.234,1.312c-0.742,0-1.471-0.026-2.188-0.08
		c-0.716-0.053-1.445-0.131-2.188-0.238v16.787c-0.054,1.219-0.412,2.135-1.074,2.744c-0.664,0.609-1.393,0.916-2.188,0.916
		c-0.744,0-1.433-0.279-2.068-0.836c-0.637-0.557-1.035-1.42-1.193-2.586V28.68C120.236,27.62,120.66,26.824,121.245,26.293z
		 M127.291,37.67c-0.106,0.159-0.238,0.306-0.397,0.438c-0.159,0.133-0.292,0.252-0.397,0.358v15.037
		c0.742,0.159,1.472,0.292,2.188,0.398c0.717,0.106,1.445,0.158,2.188,0.158c1.803,0,3.474-0.238,5.013-0.716
		c1.538-0.478,2.876-1.166,4.018-2.068c1.14-0.901,2.028-2.015,2.665-3.341s0.955-2.838,0.955-4.535
		c0-1.273-0.199-2.559-0.597-3.859c-0.397-1.298-0.955-2.478-1.671-3.54c-0.716-1.06-1.551-1.922-2.506-2.585
		c-0.955-0.663-2.017-0.995-3.183-0.995c-0.902,0-1.75,0.159-2.546,0.478c-0.795,0.318-1.539,0.729-2.228,1.233
		c-0.69,0.505-1.326,1.062-1.909,1.671C128.298,36.411,127.769,37.033,127.291,37.67z"/>
	<path d="M166.512,57.002c0.954,0.69,1.512,1.473,1.671,2.348c0.158,0.875,0.039,1.631-0.358,2.268s-1.008,1.086-1.829,1.352
		c-0.823,0.266-1.765,0.133-2.824-0.396c-0.479-0.318-0.955-0.637-1.433-0.955s-0.981-0.637-1.512-0.955
		c-0.478-0.424-0.796-0.822-0.954-1.193c-0.16-0.371-0.293-0.901-0.398-1.592V13.723c0.211-1.007,0.623-1.776,1.233-2.308
		c0.608-0.529,1.245-0.808,1.909-0.835c0.662-0.026,1.312,0.199,1.949,0.676c0.637,0.477,1.113,1.221,1.432,2.228v42.803
		c0.16,0.106,0.331,0.226,0.518,0.357C166.101,56.777,166.3,56.896,166.512,57.002z"/>
	<path d="M201.996,51.514c1.113-0.425,2.068-0.479,2.865-0.16c0.795,0.318,1.363,0.823,1.709,1.512
		c0.346,0.689,0.398,1.459,0.16,2.308s-0.863,1.565-1.869,2.147c-1.752,1.009-3.635,1.938-5.65,2.785s-4.057,1.432-6.125,1.75
		s-4.111,0.305-6.127-0.039c-2.016-0.346-3.951-1.154-5.807-2.428c-2.229-1.537-3.926-3.619-5.092-6.244
		c-1.168-2.626-1.777-5.357-1.83-8.195c-0.053-2.836,0.464-5.569,1.551-8.194s2.798-4.733,5.133-6.325
		c2.438-1.644,5.092-2.876,7.955-3.7c2.863-0.821,5.754-0.915,8.672-0.278c1.432,0.318,2.73,0.995,3.898,2.029
		c1.166,1.034,2.107,2.228,2.824,3.58s1.1,2.785,1.154,4.296c0.051,1.511-0.318,2.931-1.115,4.256
		c-0.902,1.486-2.201,2.745-3.898,3.779s-3.539,1.909-5.529,2.625c-1.988,0.717-3.977,1.312-5.967,1.791
		c-1.988,0.477-3.727,0.928-5.211,1.352c-0.637,0.16-1.246,0.188-1.83,0.08c0.797,1.697,1.977,3.09,3.541,4.177
		s3.514,1.552,5.848,1.392c1.855-0.105,3.727-0.622,5.609-1.551C198.746,53.33,200.457,52.416,201.996,51.514z M186.482,34.567
		c-1.963,1.008-3.422,2.426-4.375,4.256c-0.955,1.83-1.434,3.752-1.434,5.768c0.371-0.266,0.77-0.478,1.193-0.637
		c0.955-0.265,1.922-0.543,2.904-0.836c0.98-0.291,1.977-0.568,2.984-0.835c0.637-0.159,1.498-0.397,2.586-0.716
		c1.086-0.318,2.213-0.689,3.381-1.113c1.166-0.424,2.227-0.916,3.182-1.473s1.592-1.18,1.91-1.87
		c0.105-1.75-0.318-2.943-1.273-3.58c-0.955-0.636-2.096-0.955-3.422-0.955s-2.703,0.226-4.137,0.676
		C188.55,33.706,187.382,34.143,186.482,34.567z"/>
</g>
</svg>
